<?xml version="1.0" standalone="no"?>
<!DOCTYPE svg PUBLIC "-//W3C//DTD SVG 20010904//EN"
 "http://www.w3.org/TR/2001/REC-SVG-20010904/DTD/svg10.dtd">
<svg version="1.0" xmlns="http://www.w3.org/2000/svg"
 width="2000.000000pt" height="1500.000000pt" viewBox="0 0 2000.000000 1500.000000"
 preserveAspectRatio="xMidYMid meet">
<metadata>
Created by potrace 1.16, written by Peter Selinger 2001-2019
</metadata>
<g transform="translate(0.000000,1500.000000) scale(0.100000,-0.100000)"
fill="#000000" stroke="none">
<path d="M0 7500 l0 -7500 10000 0 10000 0 0 7500 0 7500 -10000 0 -10000 0 0
-7500z m9875 4990 c1331 -96 2386 -535 3204 -1335 502 -490 843 -1040 1071
-1725 133 -397 210 -784 257 -1280 24 -261 24 -913 0 -1200 -72 -831 -230
-1456 -539 -2125 -327 -708 -791 -1279 -1337 -1645 -486 -325 -1079 -549
-1681 -634 -292 -42 -258 -41 -2130 -41 -1687 0 -1812 1 -1911 18 -507 85
-827 293 -1009 656 -108 217 -183 524 -222 916 -10 104 -13 817 -13 3530 0
3252 1 3406 18 3530 87 610 352 1001 815 1201 146 63 363 117 552 137 85 9
2795 6 2925 -3z"/>
<path d="M8940 7478 l0 -2991 153 6 c318 13 560 70 775 182 184 96 392 272
510 430 272 368 447 983 513 1805 29 363 26 1075 -6 1400 -79 814 -274 1348
-611 1671 -267 255 -538 387 -919 448 -100 16 -347 41 -407 41 -5 0 -8 -1346
-8 -2992z"/>
</g>
</svg>
